<mxfile host="app.diagrams.net" modified="2021-09-18T04:52:13.585Z" agent="5.0 (Windows NT 10.0; Win64; x64) AppleWebKit/537.36 (KHTML, like Gecko) Chrome/93.0.4577.82 Safari/537.36" etag="ppayoVsuwAlu_Ck-zCpe" version="15.2.9" type="github">
  <diagram name="Page-1" id="90a13364-a465-7bf4-72fc-28e22215d7a0">
    <mxGraphModel dx="1038" dy="579" grid="1" gridSize="10" guides="1" tooltips="1" connect="1" arrows="1" fold="1" page="1" pageScale="1.5" pageWidth="1169" pageHeight="826" background="none" math="0" shadow="0">
      <root>
        <mxCell id="0" style=";html=1;" />
        <mxCell id="1" style=";html=1;" parent="0" />
        <mxCell id="_ACVbjb4rTPhQJA2rkIT-1" value="&lt;h2&gt;&lt;font face=&quot;roboto&quot; data-font-src=&quot;https://fonts.googleapis.com/css?family=roboto&quot; color=&quot;#ffffff&quot;&gt;CRS&lt;/font&gt;&lt;/h2&gt;" style="ellipse;whiteSpace=wrap;html=1;aspect=fixed;strokeColor=#FFFFFF;shadow=1;" parent="1" vertex="1">
          <mxGeometry x="480" y="350" width="100" height="100" as="geometry" />
        </mxCell>
        <mxCell id="_ACVbjb4rTPhQJA2rkIT-3" value="" style="endArrow=none;html=1;strokeColor=#FFFFFF;shadow=1;" parent="1" edge="1">
          <mxGeometry width="50" height="50" relative="1" as="geometry">
            <mxPoint x="580" y="400" as="sourcePoint" />
            <mxPoint x="640" y="400" as="targetPoint" />
          </mxGeometry>
        </mxCell>
        <mxCell id="_ACVbjb4rTPhQJA2rkIT-4" value="" style="endArrow=none;html=1;strokeColor=#FFFFFF;shadow=1;" parent="1" edge="1">
          <mxGeometry width="50" height="50" relative="1" as="geometry">
            <mxPoint x="640" y="680" as="sourcePoint" />
            <mxPoint x="640" y="200" as="targetPoint" />
          </mxGeometry>
        </mxCell>
        <mxCell id="_ACVbjb4rTPhQJA2rkIT-5" value="" style="endArrow=none;html=1;strokeColor=#FFFFFF;shadow=1;" parent="1" edge="1">
          <mxGeometry width="50" height="50" relative="1" as="geometry">
            <mxPoint x="640" y="200" as="sourcePoint" />
            <mxPoint x="720" y="200" as="targetPoint" />
          </mxGeometry>
        </mxCell>
        <mxCell id="_ACVbjb4rTPhQJA2rkIT-6" value="" style="endArrow=none;html=1;strokeColor=#FFFFFF;shadow=1;" parent="1" edge="1">
          <mxGeometry width="50" height="50" relative="1" as="geometry">
            <mxPoint x="640" y="280" as="sourcePoint" />
            <mxPoint x="720" y="280" as="targetPoint" />
          </mxGeometry>
        </mxCell>
        <mxCell id="_ACVbjb4rTPhQJA2rkIT-7" value="" style="endArrow=none;html=1;strokeColor=#FFFFFF;shadow=1;" parent="1" edge="1">
          <mxGeometry width="50" height="50" relative="1" as="geometry">
            <mxPoint x="640" y="520" as="sourcePoint" />
            <mxPoint x="720" y="520" as="targetPoint" />
          </mxGeometry>
        </mxCell>
        <mxCell id="_ACVbjb4rTPhQJA2rkIT-8" value="" style="endArrow=none;html=1;strokeColor=#FFFFFF;shadow=1;" parent="1" edge="1">
          <mxGeometry width="50" height="50" relative="1" as="geometry">
            <mxPoint x="640" y="440" as="sourcePoint" />
            <mxPoint x="720" y="440" as="targetPoint" />
          </mxGeometry>
        </mxCell>
        <mxCell id="_ACVbjb4rTPhQJA2rkIT-9" value="" style="endArrow=none;html=1;strokeColor=#FFFFFF;shadow=1;" parent="1" edge="1">
          <mxGeometry width="50" height="50" relative="1" as="geometry">
            <mxPoint x="640" y="360" as="sourcePoint" />
            <mxPoint x="720" y="360" as="targetPoint" />
          </mxGeometry>
        </mxCell>
        <mxCell id="_ACVbjb4rTPhQJA2rkIT-10" value="" style="endArrow=none;html=1;strokeColor=#FFFFFF;shadow=1;" parent="1" edge="1">
          <mxGeometry width="50" height="50" relative="1" as="geometry">
            <mxPoint x="640" y="600" as="sourcePoint" />
            <mxPoint x="720" y="600" as="targetPoint" />
          </mxGeometry>
        </mxCell>
        <mxCell id="_ACVbjb4rTPhQJA2rkIT-13" value="&lt;h4&gt;&lt;font face=&quot;roboto&quot; data-font-src=&quot;https://fonts.googleapis.com/css?family=roboto&quot; color=&quot;#ffffff&quot;&gt;LATEST 3&lt;br&gt; LISTINGS&lt;/font&gt;&lt;/h4&gt;" style="rounded=0;whiteSpace=wrap;html=1;strokeColor=#FFFFFF;shadow=1;fillColor=none;" parent="1" vertex="1">
          <mxGeometry x="720" y="260" width="120" height="40" as="geometry" />
        </mxCell>
        <mxCell id="_ACVbjb4rTPhQJA2rkIT-14" value="&lt;h4&gt;&lt;font face=&quot;roboto&quot; data-font-src=&quot;https://fonts.googleapis.com/css?family=roboto&quot; color=&quot;#ffffff&quot;&gt;OWNER OF THE MONTH&lt;/font&gt;&lt;/h4&gt;" style="rounded=0;whiteSpace=wrap;html=1;strokeColor=#FFFFFF;shadow=1;fillColor=none;" parent="1" vertex="1">
          <mxGeometry x="720" y="340" width="120" height="40" as="geometry" />
        </mxCell>
        <mxCell id="_ACVbjb4rTPhQJA2rkIT-16" value="&lt;h4&gt;&lt;font face=&quot;roboto&quot; data-font-src=&quot;https://fonts.googleapis.com/css?family=roboto&quot; color=&quot;#ffffff&quot;&gt;ALL LISTINGS&lt;/font&gt;&lt;/h4&gt;" style="rounded=0;whiteSpace=wrap;html=1;strokeColor=#FFFFFF;shadow=1;fillColor=none;" parent="1" vertex="1">
          <mxGeometry x="720" y="500" width="120" height="40" as="geometry" />
        </mxCell>
        <mxCell id="_ACVbjb4rTPhQJA2rkIT-18" value="" style="endArrow=none;html=1;curved=1;strokeColor=#FFFFFF;shadow=1;" parent="1" edge="1">
          <mxGeometry width="50" height="50" relative="1" as="geometry">
            <mxPoint x="920" y="600" as="sourcePoint" />
            <mxPoint x="920" y="200" as="targetPoint" />
          </mxGeometry>
        </mxCell>
        <mxCell id="_ACVbjb4rTPhQJA2rkIT-19" value="" style="endArrow=none;html=1;strokeColor=#FFFFFF;shadow=1;" parent="1" edge="1">
          <mxGeometry width="50" height="50" relative="1" as="geometry">
            <mxPoint x="840" y="200.2" as="sourcePoint" />
            <mxPoint x="920" y="200" as="targetPoint" />
          </mxGeometry>
        </mxCell>
        <mxCell id="_ACVbjb4rTPhQJA2rkIT-20" value="" style="endArrow=none;html=1;strokeColor=#FFFFFF;shadow=1;" parent="1" edge="1">
          <mxGeometry width="50" height="50" relative="1" as="geometry">
            <mxPoint x="840" y="599" as="sourcePoint" />
            <mxPoint x="920" y="599" as="targetPoint" />
          </mxGeometry>
        </mxCell>
        <mxCell id="_ACVbjb4rTPhQJA2rkIT-23" value="" style="endArrow=none;html=1;exitX=1;exitY=0.5;exitDx=0;exitDy=0;strokeColor=#FFFFFF;shadow=1;" parent="1" source="_ACVbjb4rTPhQJA2rkIT-13" edge="1">
          <mxGeometry width="50" height="50" relative="1" as="geometry">
            <mxPoint x="850" y="280" as="sourcePoint" />
            <mxPoint x="920" y="280" as="targetPoint" />
          </mxGeometry>
        </mxCell>
        <mxCell id="_ACVbjb4rTPhQJA2rkIT-24" value="" style="endArrow=none;html=1;strokeColor=#FFFFFF;shadow=1;" parent="1" edge="1">
          <mxGeometry width="50" height="50" relative="1" as="geometry">
            <mxPoint x="840" y="359.41" as="sourcePoint" />
            <mxPoint x="920" y="360" as="targetPoint" />
          </mxGeometry>
        </mxCell>
        <mxCell id="_ACVbjb4rTPhQJA2rkIT-25" value="" style="endArrow=none;html=1;strokeColor=#FFFFFF;shadow=1;" parent="1" edge="1">
          <mxGeometry width="50" height="50" relative="1" as="geometry">
            <mxPoint x="840" y="439.40999999999997" as="sourcePoint" />
            <mxPoint x="920" y="440" as="targetPoint" />
          </mxGeometry>
        </mxCell>
        <mxCell id="_ACVbjb4rTPhQJA2rkIT-26" value="" style="endArrow=none;html=1;strokeColor=#FFFFFF;shadow=1;" parent="1" edge="1">
          <mxGeometry width="50" height="50" relative="1" as="geometry">
            <mxPoint x="840" y="519.41" as="sourcePoint" />
            <mxPoint x="920" y="520" as="targetPoint" />
          </mxGeometry>
        </mxCell>
        <mxCell id="_ACVbjb4rTPhQJA2rkIT-29" value="&lt;h4&gt;&lt;font face=&quot;roboto&quot; data-font-src=&quot;https://fonts.googleapis.com/css?family=roboto&quot; color=&quot;#ffffff&quot;&gt;SEARCH&lt;/font&gt;&lt;/h4&gt;" style="rounded=0;whiteSpace=wrap;html=1;strokeColor=#FFFFFF;shadow=1;fillColor=none;" parent="1" vertex="1">
          <mxGeometry x="720" y="180" width="120" height="40" as="geometry" />
        </mxCell>
        <mxCell id="_ACVbjb4rTPhQJA2rkIT-30" value="&lt;h3&gt;&lt;font face=&quot;roboto&quot; data-font-src=&quot;https://fonts.googleapis.com/css?family=roboto&quot; color=&quot;#ffffff&quot;&gt;DB&lt;/font&gt;&lt;/h3&gt;" style="shape=cylinder3;whiteSpace=wrap;html=1;boundedLbl=1;backgroundOutline=1;size=15;rounded=0;strokeColor=#FFFFFF;shadow=1;fillColor=none;" parent="1" vertex="1">
          <mxGeometry x="1000" y="360" width="60" height="80" as="geometry" />
        </mxCell>
        <mxCell id="_ACVbjb4rTPhQJA2rkIT-33" value="" style="edgeStyle=orthogonalEdgeStyle;curved=1;orthogonalLoop=1;jettySize=auto;html=1;strokeColor=#FFFFFF;shadow=1;" parent="1" edge="1">
          <mxGeometry relative="1" as="geometry">
            <mxPoint x="1000" y="400" as="sourcePoint" />
            <mxPoint x="920" y="400" as="targetPoint" />
          </mxGeometry>
        </mxCell>
        <mxCell id="sRA0HymiXK-Kiw4v2JPw-1" value="&lt;h3&gt;&lt;font face=&quot;roboto&quot; data-font-src=&quot;https://fonts.googleapis.com/css?family=roboto&quot; color=&quot;#ffffff&quot;&gt;DB&lt;/font&gt;&lt;/h3&gt;" style="shape=cylinder3;whiteSpace=wrap;html=1;boundedLbl=1;backgroundOutline=1;size=15;rounded=0;strokeColor=#FFFFFF;shadow=1;fillColor=none;" vertex="1" parent="1">
          <mxGeometry x="1000" y="640" width="60" height="80" as="geometry" />
        </mxCell>
        <mxCell id="sRA0HymiXK-Kiw4v2JPw-3" value="" style="endArrow=none;html=1;strokeColor=#FFFFFF;shadow=1;" edge="1" parent="1">
          <mxGeometry width="50" height="50" relative="1" as="geometry">
            <mxPoint x="640" y="680" as="sourcePoint" />
            <mxPoint x="720" y="680" as="targetPoint" />
          </mxGeometry>
        </mxCell>
        <mxCell id="sRA0HymiXK-Kiw4v2JPw-4" value="&lt;h4&gt;&lt;font face=&quot;roboto&quot; color=&quot;#ffffff&quot;&gt;REGISTER&lt;/font&gt;&lt;/h4&gt;" style="rounded=0;whiteSpace=wrap;html=1;strokeColor=#FFFFFF;shadow=1;fillColor=none;" vertex="1" parent="1">
          <mxGeometry x="720" y="660" width="120" height="40" as="geometry" />
        </mxCell>
        <mxCell id="sRA0HymiXK-Kiw4v2JPw-6" value="" style="endArrow=classic;html=1;strokeColor=#FFFFFF;entryX=0;entryY=0.5;entryDx=0;entryDy=0;entryPerimeter=0;shadow=1;" edge="1" parent="1" target="sRA0HymiXK-Kiw4v2JPw-1">
          <mxGeometry width="50" height="50" relative="1" as="geometry">
            <mxPoint x="840" y="680" as="sourcePoint" />
            <mxPoint x="890" y="630" as="targetPoint" />
          </mxGeometry>
        </mxCell>
        <mxCell id="sRA0HymiXK-Kiw4v2JPw-8" value="&lt;font face=&quot;roboto&quot; color=&quot;#ccffff&quot;&gt;OUR NEW &lt;br&gt;OWNERS&lt;/font&gt;" style="rounded=0;whiteSpace=wrap;html=1;strokeColor=#FFFFFF;shadow=1;fillColor=none;" vertex="1" parent="1">
          <mxGeometry x="720" y="420" width="120" height="40" as="geometry" />
        </mxCell>
        <mxCell id="sRA0HymiXK-Kiw4v2JPw-9" value="&lt;h4&gt;&lt;font color=&quot;#ffffff&quot;&gt;&lt;font face=&quot;roboto&quot;&gt;SINGLE&amp;nbsp;&lt;/font&gt;LISTING&lt;/font&gt;&lt;/h4&gt;" style="rounded=0;whiteSpace=wrap;html=1;strokeColor=#FFFFFF;shadow=1;fillColor=none;" vertex="1" parent="1">
          <mxGeometry x="720" y="579.5" width="120" height="40" as="geometry" />
        </mxCell>
      </root>
    </mxGraphModel>
  </diagram>
</mxfile>
